<?xml version="1.0" encoding="UTF-8" standalone="no"?>
<!-- Created with Inkscape (http://www.inkscape.org/) -->

<svg
   xmlns:osb="http://www.openswatchbook.org/uri/2009/osb"
   xmlns:dc="http://purl.org/dc/elements/1.1/"
   xmlns:cc="http://creativecommons.org/ns#"
   xmlns:rdf="http://www.w3.org/1999/02/22-rdf-syntax-ns#"
   xmlns:svg="http://www.w3.org/2000/svg"
   xmlns="http://www.w3.org/2000/svg"
   xmlns:xlink="http://www.w3.org/1999/xlink"
   xmlns:sodipodi="http://sodipodi.sourceforge.net/DTD/sodipodi-0.dtd"
   xmlns:inkscape="http://www.inkscape.org/namespaces/inkscape"
   width="800"
   height="800"
   viewBox="0 0 211.66666 211.66667"
   version="1.1"
   id="svg2623"
   inkscape:version="0.92.4 (5da689c313, 2019-01-14)"
   sodipodi:docname="drongo_logo.svg"
   inkscape:export-filename="/home/noorfarooqy/Pictures/drongo_logo_white800x800.png"
   inkscape:export-xdpi="96"
   inkscape:export-ydpi="96">
  <defs
     id="defs2617">
    <linearGradient
       id="linear-gradient"
       x1="88.825233"
       y1="523.09607"
       x2="162.35001"
       y2="574.54999"
       gradientUnits="userSpaceOnUse">
      <stop
         offset="0"
         id="stop4"
         style="stop-color:#1f0026;stop-opacity:1" />
      <stop
         offset="1"
         stop-color="#333"
         id="stop6"
         style="stop-color:#040005;stop-opacity:1" />
    </linearGradient>
    <linearGradient
       id="linear-gradient-2"
       x1="143.91115"
       y1="490.05685"
       x2="106.53164"
       y2="416.23352"
       xlink:href="#linearGradient860" />
    <linearGradient
       gradientUnits="userSpaceOnUse"
       y2="574.54999"
       x2="162.35001"
       y1="487.26999"
       x1="105.77"
       id="linearGradient860">
      <stop
         id="stop856"
         offset="0" />
      <stop
         id="stop858"
         stop-color="#333"
         offset="1"
         style="stop-color:#360044;stop-opacity:1" />
    </linearGradient>
    <linearGradient
       id="linear-gradient-3"
       x1="-21.906834"
       y1="399.86411"
       x2="175.3864"
       y2="483.0795"
       xlink:href="#linearGradient866" />
    <linearGradient
       gradientUnits="userSpaceOnUse"
       y2="574.54999"
       x2="162.35001"
       y1="487.26999"
       x1="105.77"
       id="linearGradient866">
      <stop
         id="stop862"
         offset="0"
         style="stop-color:#360044;stop-opacity:1" />
      <stop
         id="stop864"
         stop-color="#333"
         offset="1"
         style="stop-color:#050006;stop-opacity:1" />
    </linearGradient>
    <linearGradient
       id="linear-gradient-4"
       x1="252.19888"
       y1="452.34473"
       x2="164.94106"
       y2="318.56226"
       xlink:href="#linearGradient848" />
    <linearGradient
       gradientUnits="userSpaceOnUse"
       y2="574.54999"
       x2="162.35001"
       y1="487.26999"
       x1="105.77"
       id="linearGradient848">
      <stop
         id="stop844"
         offset="0" />
      <stop
         id="stop846"
         stop-color="#333"
         offset="1"
         style="stop-color:#440055;stop-opacity:1" />
    </linearGradient>
    <linearGradient
       inkscape:collect="always"
       xlink:href="#linear-gradient-5"
       id="linearGradient2582"
       gradientUnits="userSpaceOnUse"
       x1="254.39"
       y1="301.51999"
       x2="295.39001"
       y2="364.76999" />
    <linearGradient
       id="linear-gradient-5"
       x1="254.39"
       y1="301.51999"
       x2="295.39001"
       y2="364.76999"
       gradientUnits="userSpaceOnUse">
      <stop
         offset="0"
         stop-color="#ffab11"
         id="stop12" />
      <stop
         offset="1"
         stop-color="#ff3a5f"
         id="stop14" />
    </linearGradient>
    <linearGradient
       id="linear-gradient-6"
       x1="218.46001"
       y1="283.91"
       x2="290.31"
       y2="394.75"
       xlink:href="#linear-gradient-5" />
    <linearGradient
       inkscape:collect="always"
       xlink:href="#linearGradient2495"
       id="linearGradient2615"
       gradientUnits="userSpaceOnUse"
       x1="187.5"
       y1="336.13"
       x2="214.06"
       y2="336.13" />
    <linearGradient
       id="linearGradient2495"
       osb:paint="solid">
      <stop
         style="stop-color:#800033;stop-opacity:1;"
         offset="0"
         id="stop2493" />
    </linearGradient>
  </defs>
  <sodipodi:namedview
     id="base"
     pagecolor="#ffffff"
     bordercolor="#666666"
     borderopacity="1.0"
     inkscape:pageopacity="1"
     inkscape:pageshadow="2"
     inkscape:zoom="0.7"
     inkscape:cx="295.90733"
     inkscape:cy="296.94289"
     inkscape:document-units="mm"
     inkscape:current-layer="layer1"
     showgrid="false"
     units="px"
     inkscape:window-width="2048"
     inkscape:window-height="1081"
     inkscape:window-x="0"
     inkscape:window-y="34"
     inkscape:window-maximized="1" />
  <metadata
     id="metadata2620">
    <rdf:RDF>
      <cc:Work
         rdf:about="">
        <dc:format>image/svg+xml</dc:format>
        <dc:type
           rdf:resource="http://purl.org/dc/dcmitype/StillImage" />
        <dc:title></dc:title>
      </cc:Work>
    </rdf:RDF>
  </metadata>
  <g
     inkscape:label="Layer 1"
     inkscape:groupmode="layer"
     id="layer1"
     transform="translate(0,-85.33332)">
    <g
       style="stroke:none"
       id="Bird"
       transform="matrix(0.6743339,0,0,0.6149349,-0.37797619,105.34152)">
      <path
         inkscape:connector-curvature="0"
         style="fill:url(#linear-gradient);stroke:none"
         transform="translate(-1.9,-293.1)"
         d="m 242.11,515.75 a 172.35,172.35 0 0 1 -160.44,-12.86 172.93,172.93 0 0 1 -53,47.23 172.18,172.18 0 0 0 213.47,-34.37 z"
         class="cls-2"
         id="Tail" />
      <path
         inkscape:connector-curvature="0"
         style="fill:url(#linear-gradient-2);stroke:none"
         transform="translate(-1.9,-293.1)"
         d="m 115.31,400.67 a 172.42,172.42 0 0 1 -44,-5.7 q -0.15,2.83 -0.15,5.7 A 107.68,107.68 0 0 0 200.78,506 107.61,107.61 0 0 1 115.31,400.67 Z"
         class="cls-3"
         id="Torso" />
      <path
         inkscape:connector-curvature="0"
         style="fill:url(#linear-gradient-3);stroke:none"
         transform="translate(-1.9,-293.1)"
         d="M 200.78,506 A 107.59,107.59 0 0 1 71.11,400.67 q 0,-2.87 0.15,-5.7 A 171.64,171.64 0 0 1 1.9,358 172.2,172.2 0 0 0 242.11,515.75 q 4.94,-5.47 9.38,-11.37 A 171.38,171.38 0 0 0 286.24,400.67 107.61,107.61 0 0 1 200.78,506 Z"
         class="cls-4"
         id="Wing" />
      <path
         inkscape:connector-curvature="0"
         style="fill:url(#linear-gradient-4);stroke:none"
         transform="translate(-1.9,-293.1)"
         d="m 256.74,326.67 a 107.33,107.33 0 0 0 -56,-31.29 107.59,107.59 0 0 0 0,210.58 107.58,107.58 0 0 0 56,-179.29 z m -56,-12 a 21.48,21.48 0 1 1 -21.48,21.48 21.48,21.48 0 0 1 21.52,-21.5 z"
         class="cls-5"
         id="Head" />
      <path
         inkscape:connector-curvature="0"
         style="fill:url(#linearGradient2582);stroke:none"
         transform="translate(-1.9,-293.1)"
         d="m 270.07,304 a 106.1,106.1 0 0 0 -18.58,-7 171.45,171.45 0 0 1 34.75,103.71 64.47,64.47 0 0 1 29.55,-54.22 A 108.12,108.12 0 0 0 270.07,304 Z"
         class="cls-6"
         id="Beak" />
      <path
         inkscape:connector-curvature="0"
         style="fill:url(#linear-gradient-6);stroke:none"
         transform="translate(-1.9,-293.1)"
         d="M 263.8,315.64 A 171.59,171.59 0 0 0 251.49,297 a 108.08,108.08 0 0 0 -50.71,-1.58 107.62,107.62 0 0 1 85.41,102 171.2,171.2 0 0 0 -22.39,-81.78 z"
         class="cls-7"
         data-name="Beak"
         id="Beak-2" />
      <path
         d="m 179.79286,340.705 a 21.48,21.48 0 0 1 16.36315,-25.55139 21.48,21.48 0 0 1 25.58953,16.30344 21.48,21.48 0 0 1 -16.24364,25.62753 21.48,21.48 0 0 1 -25.66539,-16.18375"
         sodipodi:open="true"
         sodipodi:end="2.9176195"
         sodipodi:start="2.9269599"
         sodipodi:ry="21.48"
         sodipodi:rx="21.48"
         sodipodi:cy="336.13"
         sodipodi:cx="200.78"
         sodipodi:type="arc"
         style="fill:url(#meshgradient888);fill-opacity:1;stroke:none"
         transform="rotate(-45,-153.97539,191.86869)"
         class="cls-8"
         id="Eye" />
      <path
         inkscape:connector-curvature="0"
         id="Eye-2"
         d="m 214.06,336.13 a 13.28,13.28 0 0 1 -13.26575,13.28 13.28,13.28 0 0 1 -13.29422,-13.25149 13.28,13.28 0 0 1 13.23721,-13.30844 13.28,13.28 0 0 1 13.32264,13.22293"
         style="fill:#aa0044;fill-opacity:1;stroke:none"
         transform="rotate(-45,-153.97539,191.86869)" />
      <path
         sodipodi:nodetypes="csssc"
         inkscape:connector-curvature="0"
         transform="rotate(-45,-153.97539,191.86869)"
         style="fill:url(#linearGradient2615);fill-opacity:1;stroke:none"
         d="m 214.06,336.13 c 0,7.32878 -5.93697,13.27214 -13.26575,13.28 -7.32877,0.008 -13.27849,-5.92273 -13.29422,-13.25149 -0.0157,-7.32876 7.84502,1.23924 15.17375,1.21564 7.32875,-0.0236 11.35464,-8.62986 11.3861,-1.30115"
         id="path2499" />
    </g>
  </g>
</svg>
